Coordinates
version=1
nRows=12
nColumns=24
inDegrees=yes

Units are S.I. units (second, meters, Newtons, ...)
Angles are in degrees.

endheader
time	pelvis_tilt	pelvis_list	pelvis_rotation	pelvis_tx	pelvis_ty	pelvis_tz	hip_flexion_r	hip_adduction_r	hip_rotation_r	knee_angle_r	ankle_angle_r	subtalar_angle_r	mtp_angle_r	hip_flexion_l	hip_adduction_l	hip_rotation_l	knee_angle_l	ankle_angle_l	subtalar_angle_l	mtp_angle_l	lumbar_extension	lumbar_bending	lumbar_rotation
      1.04400000	     -3.15398917	     -2.52393039	     -2.97250698	     -0.14792396	      0.96968241	      0.32461850	    -10.21138532	      5.76519632	     -5.75509738	    -11.24310411	     14.99930170	      3.64041907	      4.58028074	     25.24897713	     -1.13832350	     -5.75639686	      2.16383201	     -1.44799329	     -2.20091885	     -1.43054187	     -0.52784863	      6.28355049	      6.79358022
      1.04816667	     -3.21815115	     -2.43755720	     -3.02957038	     -0.14211485	      0.96902505	      0.32441320	    -10.22052998	      5.61207448	     -5.69524341	    -11.79189905	     15.07437942	      3.59155985	      4.65439185	     25.25639455	     -1.01009361	     -5.70546083	      2.14190214	     -1.69436619	     -2.51899953	     -1.32352249	     -0.43606862	      6.17892223	      6.89710813
      1.05233333	     -3.25453904	     -2.32438100	     -3.06503094	     -0.13623194	      0.96846542	      0.32420619	    -10.26874069	      5.43744005	     -5.63646736	    -12.31407790	     15.02246842	      3.46680274	      4.70577517	     25.26148709	     -0.85341355	     -5.71884127	      1.99347002	     -1.93707422	     -2.76812139	     -1.24304735	     -0.34612063	      6.01647326	      6.89947487
      1.05650000	     -3.31838461	     -2.22600579	     -3.09703896	     -0.13037850	      0.96791974	      0.32397587	    -10.25590877	      5.27952725	     -5.56634966	    -12.89512410	     14.98275064	      3.30632687	      4.80434213	     25.30391976	     -0.71239362	     -5.62652047	      1.76908498	     -2.23060293	     -3.22308972	     -1.08580318	     -0.24606970	      5.90221585	      6.92054184
      1.06066667	     -3.37667004	     -2.09698511	     -3.11749608	     -0.12447079	      0.96743792	      0.32373230	    -10.23929395	      5.09184830	     -5.49467723	    -13.49099963	     14.88888556	      3.10689055	      4.93984333	     25.34754111	     -0.54001273	     -5.53556997	      1.47095184	     -2.55249684	     -3.68098775	     -0.87214357	     -0.13526895	      5.74274413	      6.91894540
      1.06483333	     -3.43232152	     -1.96602563	     -3.12107605	     -0.11854147	      0.96701202	      0.32347239	    -10.20829690	      4.90615840	     -5.42919210	    -14.11639927	     14.76471652	      2.88398158	      5.09483830	     25.40521723	     -0.36307776	     -5.43738244	      1.09068491	     -2.90629637	     -4.16255727	     -0.63725389	     -0.02462064	      5.57418720	      6.90206730
      1.06900000	     -3.51508037	     -1.82319077	     -3.11298222	     -0.11258060	      0.96660878	      0.32320751	    -10.13163820	      4.71365190	     -5.35882744	    -14.77096426	     14.63849854	      2.65110465	      5.20476387	     25.51172043	     -0.17658386	     -5.35225622	      0.62778969	     -3.31737475	     -4.61550621	     -0.48398712	      0.12871241	      5.38763667	      6.87826020
      1.07316667	     -3.57088764	     -1.67641557	     -3.09953286	     -0.10661420	      0.96628475	      0.32291080	    -10.05307671	      4.51236433	     -5.29939961	    -15.47756962	     14.42898283	      2.37661468	      5.38829674	     25.57624029	      0.01983588	     -5.17375336	      0.14898446	     -3.70788394	     -5.21471718	     -0.24565956	      0.24026927	      5.20187065	      6.83969995
      1.07733333	     -3.65659375	     -1.51320574	     -3.06176609	     -0.10060586	      0.96597813	      0.32259884	     -9.93092635	      4.30271601	     -5.24564679	    -16.20013325	     14.21714703	      2.11636103	      5.52572217	     25.70119786	      0.23482464	     -5.04710622	     -0.41415820	     -4.17119909	     -5.72332524	     -0.09007449	      0.40363813	      4.99322022	      6.79556756
      1.08150000	     -3.71129204	     -1.35987325	     -3.02697349	     -0.09460026	      0.96575975	      0.32227535	     -9.80343529	      4.09798681	     -5.19524939	    -16.99295576	     13.93085029	      1.79366684	      5.79578896	     25.77480122	      0.44293639	     -4.82480879	     -0.97529122	     -4.58798757	     -6.37834908	      0.18185950	      0.52438835	      4.78850408	      6.74171848
      1.08566667	     -3.81247356	     -1.19179407	     -2.97323453	     -0.08856858	      0.96553538	      0.32192158	     -9.60551520	      3.88377144	     -5.14694665	    -17.81376616	     13.61421400	      1.49678396	      6.00196545	     25.92563477	      0.66697049	     -4.66034191	     -1.60873952	     -5.07631542	     -6.91565958	      0.35738242	      0.70243590	      4.58295474	      6.67755968
      1.08983333	     -3.89015590	     -1.01633796	     -2.90967588	     -0.08252146	      0.96539132	      0.32154752	     -9.40183255	      3.65855109	     -5.11431829	    -18.68486507	     13.22925790	      1.17770284	      6.21708180	     26.04657156	      0.90312404	     -4.46742363	     -2.25439878	     -5.53923022	     -7.46911483	      0.51360044	      0.85481556	      4.36245223	      6.60966074
